<svg width="222" height="46" viewBox="0 0 222 46" fill="none" xmlns="http://www.w3.org/2000/svg">
<g clip-path="url(#clip0_14_14)">
<path d="M22.3751 7.875H3.62508C2.47925 7.875 1.54175 9.3375 1.54175 11.125V33.875C1.54175 35.6625 2.47925 37.125 3.62508 37.125H22.3751C23.5209 37.125 24.4584 35.6625 24.4584 33.875V11.125C24.4584 9.3375 23.5209 7.875 22.3751 7.875ZM22.3751 33.875H3.62508V11.125H22.3751V33.875ZM5.70841 19.25H15.0834V22.5H5.70841V19.25ZM5.70841 14.375H15.0834V17.625H5.70841V14.375Z" fill="#423FB7"/>
</g>
<path d="M28.4077 14.5455H32.9588L37.7656 26.2727H37.9702L42.777 14.5455H47.3281V32H43.7486V20.6392H43.6037L39.0866 31.9148H36.6491L32.1321 20.5966H31.9872V32H28.4077V14.5455ZM52.5419 36.9091C52.0817 36.9091 51.6499 36.8722 51.2464 36.7983C50.8487 36.7301 50.5192 36.642 50.2578 36.5341L51.076 33.8239C51.5021 33.9545 51.8857 34.0256 52.2266 34.0369C52.5732 34.0483 52.8714 33.9688 53.1214 33.7983C53.3771 33.6278 53.5845 33.3381 53.7436 32.929L53.9567 32.375L49.2607 18.9091H53.0788L55.7891 28.5227H55.9254L58.6612 18.9091H62.505L57.4169 33.4148C57.1726 34.1193 56.8402 34.733 56.4197 35.2557C56.005 35.7841 55.4794 36.1903 54.843 36.4744C54.2067 36.7642 53.4396 36.9091 52.5419 36.9091ZM80.8097 22.642L77.4858 22.8466C77.429 22.5625 77.3068 22.3068 77.1193 22.0795C76.9318 21.8466 76.6847 21.6619 76.3778 21.5256C76.0767 21.3835 75.7159 21.3125 75.2955 21.3125C74.733 21.3125 74.2585 21.4318 73.8722 21.6705C73.4858 21.9034 73.2926 22.2159 73.2926 22.608C73.2926 22.9205 73.4176 23.1847 73.6676 23.4006C73.9176 23.6165 74.3466 23.7898 74.9545 23.9205L77.3239 24.3977C78.5966 24.6591 79.5455 25.0795 80.1705 25.6591C80.7955 26.2386 81.108 27 81.108 27.9432C81.108 28.8011 80.8551 29.554 80.3494 30.2017C79.8494 30.8494 79.1619 31.3551 78.2869 31.7188C77.4176 32.0767 76.4148 32.2557 75.2784 32.2557C73.5455 32.2557 72.1648 31.8949 71.1364 31.1733C70.1136 30.446 69.5142 29.4574 69.3381 28.2074L72.9091 28.0199C73.017 28.5483 73.2784 28.9517 73.6932 29.2301C74.108 29.5028 74.6392 29.6392 75.2869 29.6392C75.9233 29.6392 76.4347 29.517 76.821 29.2727C77.2131 29.0227 77.4119 28.7017 77.4176 28.3097C77.4119 27.9801 77.2727 27.7102 77 27.5C76.7273 27.2841 76.3068 27.1193 75.7386 27.0057L73.4716 26.554C72.1932 26.2983 71.2415 25.8551 70.6165 25.2244C69.9972 24.5937 69.6875 23.7898 69.6875 22.8125C69.6875 21.9716 69.9148 21.2472 70.3693 20.6392C70.8295 20.0312 71.4744 19.5625 72.304 19.233C73.1392 18.9034 74.1165 18.7386 75.2358 18.7386C76.8892 18.7386 78.1903 19.0881 79.1392 19.7869C80.0938 20.4858 80.6506 21.4375 80.8097 22.642ZM87.0249 24.4318V32H83.3942V14.5455H86.9226V21.2188H87.076C87.3714 20.446 87.8487 19.8409 88.5078 19.4034C89.1669 18.9602 89.9936 18.7386 90.9879 18.7386C91.897 18.7386 92.6896 18.9375 93.3658 19.3352C94.0476 19.7273 94.576 20.2926 94.951 21.0312C95.3317 21.7642 95.5192 22.642 95.5135 23.6648V32H91.8828V24.3125C91.8885 23.5057 91.6839 22.8778 91.2692 22.429C90.8601 21.9801 90.2862 21.7557 89.5476 21.7557C89.0533 21.7557 88.6158 21.8608 88.2351 22.071C87.8601 22.2812 87.5646 22.5881 87.3487 22.9915C87.1385 23.3892 87.0305 23.8693 87.0249 24.4318ZM104.286 32.2557C102.962 32.2557 101.817 31.9744 100.851 31.4119C99.8906 30.8437 99.1491 30.054 98.6264 29.0426C98.1037 28.0256 97.8423 26.8466 97.8423 25.5057C97.8423 24.1534 98.1037 22.9716 98.6264 21.9602C99.1491 20.9432 99.8906 20.1534 100.851 19.5909C101.817 19.0227 102.962 18.7386 104.286 18.7386C105.609 18.7386 106.751 19.0227 107.712 19.5909C108.678 20.1534 109.422 20.9432 109.945 21.9602C110.467 22.9716 110.729 24.1534 110.729 25.5057C110.729 26.8466 110.467 28.0256 109.945 29.0426C109.422 30.054 108.678 30.8437 107.712 31.4119C106.751 31.9744 105.609 32.2557 104.286 32.2557ZM104.303 29.4432C104.905 29.4432 105.408 29.2727 105.811 28.9318C106.214 28.5852 106.518 28.1136 106.723 27.517C106.933 26.9205 107.038 26.2415 107.038 25.4801C107.038 24.7188 106.933 24.0398 106.723 23.4432C106.518 22.8466 106.214 22.375 105.811 22.0284C105.408 21.6818 104.905 21.5085 104.303 21.5085C103.695 21.5085 103.183 21.6818 102.768 22.0284C102.359 22.375 102.05 22.8466 101.839 23.4432C101.635 24.0398 101.533 24.7188 101.533 25.4801C101.533 26.2415 101.635 26.9205 101.839 27.517C102.05 28.1136 102.359 28.5852 102.768 28.9318C103.183 29.2727 103.695 29.4432 104.303 29.4432ZM113.089 36.9091V18.9091H116.669V21.108H116.831C116.99 20.7557 117.22 20.3977 117.521 20.0341C117.828 19.6648 118.226 19.358 118.714 19.1136C119.209 18.8636 119.822 18.7386 120.555 18.7386C121.51 18.7386 122.391 18.9886 123.197 19.4886C124.004 19.983 124.649 20.7301 125.132 21.7301C125.615 22.7244 125.857 23.9716 125.857 25.4716C125.857 26.9318 125.621 28.1648 125.149 29.1705C124.683 30.1705 124.047 30.929 123.24 31.446C122.439 31.9574 121.541 32.2131 120.547 32.2131C119.842 32.2131 119.243 32.0966 118.749 31.8636C118.26 31.6307 117.859 31.3381 117.547 30.9858C117.234 30.6278 116.996 30.267 116.831 29.9034H116.72V36.9091H113.089ZM116.643 25.4545C116.643 26.233 116.751 26.9119 116.967 27.4915C117.183 28.071 117.496 28.5227 117.905 28.8466C118.314 29.1648 118.811 29.3239 119.396 29.3239C119.987 29.3239 120.487 29.1619 120.896 28.8381C121.305 28.5085 121.615 28.054 121.825 27.4744C122.041 26.8892 122.149 26.2159 122.149 25.4545C122.149 24.6989 122.044 24.0341 121.834 23.4602C121.624 22.8864 121.314 22.4375 120.905 22.1136C120.496 21.7898 119.993 21.6278 119.396 21.6278C118.805 21.6278 118.305 21.7841 117.896 22.0966C117.493 22.4091 117.183 22.8523 116.967 23.4261C116.751 24 116.643 24.6761 116.643 25.4545ZM128.277 36.9091V18.9091H131.857V21.108H132.018C132.178 20.7557 132.408 20.3977 132.709 20.0341C133.016 19.6648 133.413 19.358 133.902 19.1136C134.396 18.8636 135.01 18.7386 135.743 18.7386C136.697 18.7386 137.578 18.9886 138.385 19.4886C139.192 19.983 139.837 20.7301 140.32 21.7301C140.803 22.7244 141.044 23.9716 141.044 25.4716C141.044 26.9318 140.808 28.1648 140.337 29.1705C139.871 30.1705 139.234 30.929 138.428 31.446C137.626 31.9574 136.729 32.2131 135.734 32.2131C135.03 32.2131 134.43 32.0966 133.936 31.8636C133.447 31.6307 133.047 31.3381 132.734 30.9858C132.422 30.6278 132.183 30.267 132.018 29.9034H131.908V36.9091H128.277ZM131.831 25.4545C131.831 26.233 131.939 26.9119 132.155 27.4915C132.371 28.071 132.683 28.5227 133.092 28.8466C133.501 29.1648 133.999 29.3239 134.584 29.3239C135.175 29.3239 135.675 29.1619 136.084 28.8381C136.493 28.5085 136.803 28.054 137.013 27.4744C137.229 26.8892 137.337 26.2159 137.337 25.4545C137.337 24.6989 137.232 24.0341 137.021 23.4602C136.811 22.8864 136.501 22.4375 136.092 22.1136C135.683 21.7898 135.18 21.6278 134.584 21.6278C133.993 21.6278 133.493 21.7841 133.084 22.0966C132.68 22.4091 132.371 22.8523 132.155 23.4261C131.939 24 131.831 24.6761 131.831 25.4545ZM143.464 32V18.9091H147.095V32H143.464ZM145.288 17.2216C144.749 17.2216 144.286 17.0426 143.899 16.6847C143.518 16.321 143.328 15.8864 143.328 15.3807C143.328 14.8807 143.518 14.4517 143.899 14.0938C144.286 13.7301 144.749 13.5483 145.288 13.5483C145.828 13.5483 146.288 13.7301 146.669 14.0938C147.055 14.4517 147.249 14.8807 147.249 15.3807C147.249 15.8864 147.055 16.321 146.669 16.6847C146.288 17.0426 145.828 17.2216 145.288 17.2216ZM153.634 24.4318V32H150.004V18.9091H153.464V21.2188H153.617C153.907 20.4574 154.393 19.8551 155.075 19.4119C155.756 18.9631 156.583 18.7386 157.555 18.7386C158.464 18.7386 159.256 18.9375 159.933 19.3352C160.609 19.733 161.134 20.3011 161.509 21.0398C161.884 21.7727 162.072 22.6477 162.072 23.6648V32H158.441V24.3125C158.447 23.5114 158.242 22.8864 157.827 22.4375C157.413 21.983 156.842 21.7557 156.114 21.7557C155.626 21.7557 155.194 21.8608 154.819 22.071C154.45 22.2812 154.16 22.5881 153.95 22.9915C153.745 23.3892 153.64 23.8693 153.634 24.4318ZM170.831 37.1818C169.655 37.1818 168.646 37.0199 167.805 36.696C166.97 36.3778 166.305 35.9432 165.811 35.392C165.317 34.8409 164.996 34.2216 164.848 33.5341L168.206 33.0824C168.308 33.3438 168.47 33.5881 168.692 33.8153C168.913 34.0426 169.206 34.2244 169.57 34.3608C169.939 34.5028 170.388 34.5739 170.916 34.5739C171.706 34.5739 172.357 34.3807 172.868 33.9943C173.385 33.6136 173.643 32.9744 173.643 32.0767V29.6818H173.49C173.331 30.0455 173.092 30.3892 172.774 30.7131C172.456 31.0369 172.047 31.3011 171.547 31.5057C171.047 31.7102 170.45 31.8125 169.757 31.8125C168.774 31.8125 167.879 31.5852 167.072 31.1307C166.271 30.6705 165.632 29.9687 165.155 29.0256C164.683 28.0767 164.447 26.8778 164.447 25.429C164.447 23.946 164.689 22.7074 165.172 21.7131C165.655 20.7187 166.297 19.9744 167.098 19.4801C167.905 18.9858 168.788 18.7386 169.749 18.7386C170.482 18.7386 171.095 18.8636 171.589 19.1136C172.084 19.358 172.482 19.6648 172.783 20.0341C173.089 20.3977 173.325 20.7557 173.49 21.108H173.626V18.9091H177.232V32.1278C177.232 33.2415 176.959 34.1733 176.413 34.9233C175.868 35.6733 175.112 36.2358 174.146 36.6108C173.186 36.9915 172.081 37.1818 170.831 37.1818ZM170.908 29.0852C171.493 29.0852 171.987 28.9403 172.391 28.6506C172.8 28.3551 173.112 27.9347 173.328 27.3892C173.55 26.8381 173.661 26.179 173.661 25.4119C173.661 24.6449 173.553 23.9801 173.337 23.4176C173.121 22.8494 172.808 22.4091 172.399 22.0966C171.99 21.7841 171.493 21.6278 170.908 21.6278C170.311 21.6278 169.808 21.7898 169.399 22.1136C168.99 22.4318 168.68 22.875 168.47 23.4432C168.26 24.0114 168.155 24.6676 168.155 25.4119C168.155 26.1676 168.26 26.821 168.47 27.3722C168.686 27.9176 168.996 28.3409 169.399 28.642C169.808 28.9375 170.311 29.0852 170.908 29.0852ZM189.306 14.5455V32H185.675V14.5455H189.306ZM192.214 32V18.9091H195.845V32H192.214ZM194.038 17.2216C193.499 17.2216 193.036 17.0426 192.649 16.6847C192.268 16.321 192.078 15.8864 192.078 15.3807C192.078 14.8807 192.268 14.4517 192.649 14.0938C193.036 13.7301 193.499 13.5483 194.038 13.5483C194.578 13.5483 195.038 13.7301 195.419 14.0938C195.805 14.4517 195.999 14.8807 195.999 15.3807C195.999 15.8864 195.805 16.321 195.419 16.6847C195.038 17.0426 194.578 17.2216 194.038 17.2216ZM209.646 22.642L206.322 22.8466C206.265 22.5625 206.143 22.3068 205.955 22.0795C205.768 21.8466 205.521 21.6619 205.214 21.5256C204.913 21.3835 204.552 21.3125 204.131 21.3125C203.569 21.3125 203.094 21.4318 202.708 21.6705C202.322 21.9034 202.129 22.2159 202.129 22.608C202.129 22.9205 202.254 23.1847 202.504 23.4006C202.754 23.6165 203.183 23.7898 203.79 23.9205L206.16 24.3977C207.433 24.6591 208.381 25.0795 209.006 25.6591C209.631 26.2386 209.944 27 209.944 27.9432C209.944 28.8011 209.691 29.554 209.185 30.2017C208.685 30.8494 207.998 31.3551 207.123 31.7188C206.254 32.0767 205.251 32.2557 204.114 32.2557C202.381 32.2557 201.001 31.8949 199.972 31.1733C198.95 30.446 198.35 29.4574 198.174 28.2074L201.745 28.0199C201.853 28.5483 202.114 28.9517 202.529 29.2301C202.944 29.5028 203.475 29.6392 204.123 29.6392C204.759 29.6392 205.271 29.517 205.657 29.2727C206.049 29.0227 206.248 28.7017 206.254 28.3097C206.248 27.9801 206.109 27.7102 205.836 27.5C205.563 27.2841 205.143 27.1193 204.575 27.0057L202.308 26.554C201.029 26.2983 200.077 25.8551 199.452 25.2244C198.833 24.5937 198.523 23.7898 198.523 22.8125C198.523 21.9716 198.751 21.2472 199.205 20.6392C199.665 20.0312 200.31 19.5625 201.14 19.233C201.975 18.9034 202.952 18.7386 204.072 18.7386C205.725 18.7386 207.026 19.0881 207.975 19.7869C208.93 20.4858 209.487 21.4375 209.646 22.642ZM219.193 18.9091V21.6364H211.31V18.9091H219.193ZM213.099 15.7727H216.73V27.9773C216.73 28.3125 216.781 28.5739 216.884 28.7614C216.986 28.9432 217.128 29.071 217.31 29.1449C217.497 29.2187 217.713 29.2557 217.957 29.2557C218.128 29.2557 218.298 29.2415 218.469 29.2131C218.639 29.179 218.77 29.1534 218.861 29.1364L219.432 31.8381C219.25 31.8949 218.994 31.9602 218.665 32.0341C218.335 32.1136 217.935 32.1619 217.463 32.179C216.588 32.2131 215.821 32.0966 215.162 31.8295C214.509 31.5625 214 31.1477 213.636 30.5852C213.273 30.0227 213.094 29.3125 213.099 28.4545V15.7727Z" fill="#423FB7"/>
<path d="M28.4077 14.5455V13.5455C27.8554 13.5455 27.4077 13.9932 27.4077 14.5455H28.4077ZM32.9588 14.5455L33.8841 14.1662C33.7302 13.7907 33.3646 13.5455 32.9588 13.5455V14.5455ZM37.7656 26.2727L36.8403 26.652C36.9942 27.0275 37.3598 27.2727 37.7656 27.2727V26.2727ZM37.9702 26.2727V27.2727C38.376 27.2727 38.7416 27.0275 38.8955 26.652L37.9702 26.2727ZM42.777 14.5455V13.5455C42.3712 13.5455 42.0056 13.7907 41.8517 14.1662L42.777 14.5455ZM47.3281 14.5455H48.3281C48.3281 13.9932 47.8804 13.5455 47.3281 13.5455V14.5455ZM47.3281 32V33C47.8804 33 48.3281 32.5523 48.3281 32H47.3281ZM43.7486 32H42.7486C42.7486 32.5523 43.1963 33 43.7486 33V32ZM43.7486 20.6392H44.7486C44.7486 20.0869 44.3009 19.6392 43.7486 19.6392V20.6392ZM43.6037 20.6392V19.6392C43.195 19.6392 42.8274 19.8879 42.6754 20.2673L43.6037 20.6392ZM39.0866 31.9148V32.9148C39.4954 32.9148 39.8629 32.6661 40.0149 32.2866L39.0866 31.9148ZM36.6491 31.9148L35.7204 32.2854C35.8721 32.6655 36.24 32.9148 36.6491 32.9148V31.9148ZM32.1321 20.5966L33.0609 20.2259C32.9092 19.8459 32.5413 19.5966 32.1321 19.5966V20.5966ZM31.9872 20.5966V19.5966C31.4349 19.5966 30.9872 20.0443 30.9872 20.5966H31.9872ZM31.9872 32V33C32.5395 33 32.9872 32.5523 32.9872 32H31.9872ZM28.4077 32H27.4077C27.4077 32.5523 27.8554 33 28.4077 33V32ZM28.4077 15.5455H32.9588V13.5455H28.4077V15.5455ZM32.0335 14.9247L36.8403 26.652L38.6909 25.8935L33.8841 14.1662L32.0335 14.9247ZM37.7656 27.2727H37.9702V25.2727H37.7656V27.2727ZM38.8955 26.652L43.7023 14.9247L41.8517 14.1662L37.0449 25.8935L38.8955 26.652ZM42.777 15.5455H47.3281V13.5455H42.777V15.5455ZM46.3281 14.5455V32H48.3281V14.5455H46.3281ZM47.3281 31H43.7486V33H47.3281V31ZM44.7486 32V20.6392H42.7486V32H44.7486ZM43.7486 19.6392H43.6037V21.6392H43.7486V19.6392ZM42.6754 20.2673L38.1584 31.5429L40.0149 32.2866L44.532 21.0111L42.6754 20.2673ZM39.0866 30.9148H36.6491V32.9148H39.0866V30.9148ZM37.5779 31.5441L33.0609 20.2259L31.2033 20.9673L35.7204 32.2854L37.5779 31.5441ZM32.1321 19.5966H31.9872V21.5966H32.1321V19.5966ZM30.9872 20.5966V32H32.9872V20.5966H30.9872ZM31.9872 31H28.4077V33H31.9872V31ZM29.4077 32V14.5455H27.4077V32H29.4077ZM51.2464 36.7983L51.4266 35.8146L51.4154 35.8127L51.2464 36.7983ZM50.2578 36.5341L49.3005 36.2451C49.1519 36.7373 49.4008 37.2621 49.8761 37.4584L50.2578 36.5341ZM51.076 33.8239L51.3692 32.8678C51.1149 32.7898 50.84 32.8164 50.6053 32.9415C50.3707 33.0667 50.1955 33.2802 50.1187 33.5349L51.076 33.8239ZM52.2266 34.0369L52.1932 35.0364L52.1938 35.0364L52.2266 34.0369ZM53.1214 33.7983L52.5667 32.9662L52.5581 32.9721L53.1214 33.7983ZM53.7436 32.929L54.6756 33.2914L54.677 33.288L53.7436 32.929ZM53.9567 32.375L54.89 32.734C54.975 32.5131 54.9788 32.2692 54.9009 32.0457L53.9567 32.375ZM49.2607 18.9091V17.9091C48.9368 17.9091 48.633 18.0659 48.4454 18.33C48.2578 18.594 48.2098 18.9326 48.3164 19.2384L49.2607 18.9091ZM53.0788 18.9091L54.0413 18.6378C53.9198 18.2068 53.5266 17.9091 53.0788 17.9091V18.9091ZM55.7891 28.5227L54.8266 28.7941C54.9481 29.2251 55.3413 29.5227 55.7891 29.5227V28.5227ZM55.9254 28.5227V29.5227C56.3723 29.5227 56.7649 29.2262 56.8872 28.7964L55.9254 28.5227ZM58.6612 18.9091V17.9091C58.2144 17.9091 57.8217 18.2056 57.6994 18.6354L58.6612 18.9091ZM62.505 18.9091L63.4486 19.2401C63.5559 18.9342 63.5083 18.5952 63.3208 18.3307C63.1332 18.0663 62.8292 17.9091 62.505 17.9091V18.9091ZM57.4169 33.4148L56.4733 33.0838L56.4721 33.0871L57.4169 33.4148ZM56.4197 35.2557L55.6405 34.6289L55.6331 34.6382L56.4197 35.2557ZM54.843 36.4744L54.4354 35.5613L54.4286 35.5643L54.843 36.4744ZM52.5419 35.9091C52.1349 35.9091 51.7639 35.8764 51.4266 35.8146L51.0663 37.7819C51.5359 37.8679 52.0285 37.9091 52.5419 37.9091V35.9091ZM51.4154 35.8127C51.0625 35.7522 50.8103 35.6804 50.6396 35.6098L49.8761 37.4584C50.228 37.6037 50.635 37.7081 51.0775 37.7839L51.4154 35.8127ZM51.2151 36.8231L52.0333 34.1129L50.1187 33.5349L49.3005 36.2451L51.2151 36.8231ZM50.7828 34.7799C51.269 34.929 51.742 35.0213 52.1932 35.0364L52.2599 33.0375C52.0293 33.0298 51.7352 32.9801 51.3692 32.8678L50.7828 34.7799ZM52.1938 35.0364C52.7202 35.0537 53.2346 34.9315 53.6848 34.6245L52.5581 32.9721C52.5083 33.006 52.4261 33.0429 52.2593 33.0375L52.1938 35.0364ZM53.6761 34.6303C54.1619 34.3065 54.4727 33.8132 54.6756 33.2914L52.8116 32.5665C52.6963 32.8629 52.5924 32.9492 52.5667 32.9662L53.6761 34.6303ZM54.677 33.288L54.89 32.734L53.0233 32.016L52.8103 32.57L54.677 33.288ZM54.9009 32.0457L50.2049 18.5798L48.3164 19.2384L53.0124 32.7043L54.9009 32.0457ZM49.2607 19.9091H53.0788V17.9091H49.2607V19.9091ZM52.1164 19.1804L54.8266 28.7941L56.7515 28.2514L54.0413 18.6378L52.1164 19.1804ZM55.7891 29.5227H55.9254V27.5227H55.7891V29.5227ZM56.8872 28.7964L59.623 19.1828L57.6994 18.6354L54.9636 28.249L56.8872 28.7964ZM58.6612 19.9091H62.505V17.9091H58.6612V19.9091ZM61.5613 18.5781L56.4733 33.0838L58.3605 33.7458L63.4486 19.2401L61.5613 18.5781ZM56.4721 33.0871C56.2612 33.6952 55.9815 34.2051 55.6405 34.6289L57.199 35.8824C57.6989 35.2608 58.0839 34.5434 58.3617 33.7424L56.4721 33.0871ZM55.6331 34.6382C55.3226 35.0339 54.929 35.3409 54.4354 35.5613L55.2507 37.3876C56.0298 37.0398 56.6874 36.5343 57.2064 35.8731L55.6331 34.6382ZM54.4286 35.5643C53.9538 35.7806 53.3357 35.9091 52.5419 35.9091V37.9091C53.5435 37.9091 54.4596 37.7478 55.2575 37.3845L54.4286 35.5643ZM80.8097 22.642L80.8711 23.6402C81.1479 23.6231 81.4052 23.4919 81.5815 23.2778C81.7579 23.0637 81.8374 22.7861 81.801 22.5111L80.8097 22.642ZM77.4858 22.8466L76.5052 23.0427C76.6033 23.5329 77.0482 23.8754 77.5472 23.8447L77.4858 22.8466ZM77.1193 22.0795L76.3402 22.7066L76.3479 22.7159L77.1193 22.0795ZM76.3778 21.5256L75.9512 22.43C75.958 22.4332 75.9648 22.4363 75.9717 22.4394L76.3778 21.5256ZM73.8722 21.6705L74.3885 22.5269L74.3977 22.5213L73.8722 21.6705ZM73.6676 23.4006L73.014 24.1574L73.014 24.1574L73.6676 23.4006ZM74.9545 23.9205L74.7444 24.8982L74.7571 24.9008L74.9545 23.9205ZM77.3239 24.3977L77.525 23.4182L77.5213 23.4174L77.3239 24.3977ZM80.1705 25.6591L79.4905 26.3924L79.4905 26.3924L80.1705 25.6591ZM80.3494 30.2017L79.5612 29.5863L79.5578 29.5907L80.3494 30.2017ZM78.2869 31.7188L78.6677 32.6434L78.6707 32.6422L78.2869 31.7188ZM71.1364 31.1733L70.5568 31.9883L70.562 31.9919L71.1364 31.1733ZM69.3381 28.2074L69.2856 27.2088C69.0056 27.2235 68.7446 27.3551 68.5663 27.5715C68.388 27.7879 68.3087 28.0692 68.3479 28.3469L69.3381 28.2074ZM72.9091 28.0199L73.8889 27.8197C73.7898 27.3348 73.3509 26.9953 72.8567 27.0213L72.9091 28.0199ZM73.6932 29.2301L73.1358 30.0604L73.1438 30.0657L73.6932 29.2301ZM76.821 29.2727L77.3555 30.1179L77.3587 30.1159L76.821 29.2727ZM77.4176 28.3097L78.4175 28.3242C78.4177 28.3136 78.4176 28.303 78.4175 28.2924L77.4176 28.3097ZM77 27.5L76.3792 28.2841L76.3895 28.292L77 27.5ZM75.7386 27.0057L75.9348 26.0251L75.934 26.025L75.7386 27.0057ZM73.4716 26.554L73.2755 27.5346L73.2762 27.5347L73.4716 26.554ZM70.6165 25.2244L69.903 25.9251L69.9062 25.9283L70.6165 25.2244ZM70.3693 20.6392L69.572 20.0356L69.5684 20.0404L70.3693 20.6392ZM72.304 19.233L71.937 18.3027L71.9348 18.3036L72.304 19.233ZM79.1392 19.7869L78.5462 20.5921L78.5485 20.5938L79.1392 19.7869ZM80.7482 21.6439L77.4244 21.8485L77.5472 23.8447L80.8711 23.6402L80.7482 21.6439ZM78.4664 22.6505C78.3766 22.2018 78.1813 21.7954 77.8907 21.4432L76.3479 22.7159C76.4323 22.8182 76.4813 22.9232 76.5052 23.0427L78.4664 22.6505ZM77.8983 21.4525C77.5994 21.0812 77.2181 20.8047 76.784 20.6118L75.9717 22.4394C76.1512 22.5192 76.2642 22.612 76.3403 22.7066L77.8983 21.4525ZM76.8045 20.6211C76.3396 20.4019 75.8258 20.3125 75.2955 20.3125V22.3125C75.606 22.3125 75.8138 22.3652 75.9512 22.43L76.8045 20.6211ZM75.2955 20.3125C74.5915 20.3125 73.9247 20.4626 73.3467 20.8197L74.3977 22.5213C74.5923 22.401 74.8744 22.3125 75.2955 22.3125V20.3125ZM73.3558 20.8141C72.723 21.1956 72.2926 21.807 72.2926 22.608H74.2926C74.2926 22.5928 74.2944 22.5891 74.2932 22.5933C74.292 22.5979 74.2897 22.6027 74.2881 22.6054C74.2842 22.6117 74.3009 22.5797 74.3885 22.5268L73.3558 20.8141ZM72.2926 22.608C72.2926 23.2294 72.5583 23.7639 73.014 24.1574L74.3212 22.6437C74.3039 22.6288 74.2952 22.6186 74.2916 22.614C74.2883 22.6097 74.2887 22.6094 74.2903 22.6128C74.292 22.6163 74.293 22.6197 74.2934 22.6214C74.2937 22.6229 74.2926 22.619 74.2926 22.608H72.2926ZM73.014 24.1574C73.4598 24.5424 74.0935 24.7582 74.7444 24.8981L75.1647 22.9428C74.5997 22.8213 74.3754 22.6905 74.3212 22.6437L73.014 24.1574ZM74.7571 24.9008L77.1264 25.378L77.5213 23.4174L75.152 22.9401L74.7571 24.9008ZM77.1227 25.3773C78.3031 25.6197 79.0523 25.986 79.4905 26.3924L80.8504 24.9258C80.0386 24.173 78.8901 23.6985 77.525 23.4182L77.1227 25.3773ZM79.4905 26.3924C79.8885 26.7614 80.108 27.2454 80.108 27.9432H82.108C82.108 26.7546 81.7024 25.7159 80.8504 24.9258L79.4905 26.3924ZM80.108 27.9432C80.108 28.5887 79.9233 29.1225 79.5612 29.5863L81.1377 30.8171C81.7869 29.9854 82.108 29.0136 82.108 27.9432H80.108ZM79.5578 29.5907C79.1801 30.08 78.643 30.4878 77.9032 30.7953L78.6707 32.6422C79.6808 32.2224 80.5188 31.6188 81.141 30.8128L79.5578 29.5907ZM77.9062 30.7941C77.18 31.0931 76.3108 31.2557 75.2784 31.2557V33.2557C76.5188 33.2557 77.6552 33.0603 78.6677 32.6434L77.9062 30.7941ZM75.2784 31.2557C73.6751 31.2557 72.5179 30.9211 71.7107 30.3547L70.562 31.9919C71.8116 32.8687 73.4158 33.2557 75.2784 33.2557V31.2557ZM71.7159 30.3583C70.9185 29.7913 70.4664 29.0477 70.3283 28.0679L68.3479 28.3469C68.5621 29.8671 69.3088 31.1007 70.5568 31.9883L71.7159 30.3583ZM69.3905 29.206L72.9615 29.0185L72.8567 27.0213L69.2856 27.2088L69.3905 29.206ZM71.9293 28.2201C72.0853 28.9833 72.4846 29.6232 73.1359 30.0604L74.2505 28.3998C74.0723 28.2802 73.9488 28.1133 73.8889 27.8197L71.9293 28.2201ZM73.1438 30.0657C73.7647 30.4739 74.5026 30.6392 75.2869 30.6392V28.6392C74.7758 28.6392 74.4512 28.5318 74.2426 28.3946L73.1438 30.0657ZM75.2869 30.6392C76.0413 30.6392 76.7581 30.4957 77.3555 30.1179L76.2866 28.4275C76.1112 28.5384 75.8053 28.6392 75.2869 28.6392V30.6392ZM77.3587 30.1159C77.9734 29.7239 78.406 29.119 78.4175 28.3242L76.4177 28.2952C76.4176 28.3028 76.4171 28.3078 76.4167 28.3106C76.4163 28.3133 76.4159 28.3146 76.4159 28.3146C76.4159 28.3147 76.4159 28.3146 76.4159 28.3146C76.4159 28.3146 76.4155 28.3157 76.4141 28.3178C76.4099 28.3247 76.3815 28.367 76.2834 28.4296L77.3587 30.1159ZM78.4175 28.2924C78.4063 27.6434 78.1116 27.0942 77.6105 26.708L76.3895 28.292C76.4082 28.3065 76.4173 28.3163 76.4206 28.32C76.4236 28.3235 76.4225 28.3229 76.4202 28.3185C76.4179 28.314 76.4166 28.31 76.4163 28.3086C76.416 28.3075 76.4175 28.3129 76.4178 28.3269L78.4175 28.2924ZM77.6207 26.716C77.1675 26.3572 76.5673 26.1516 75.9348 26.0251L75.5425 27.9863C76.0464 28.087 76.287 28.211 76.3793 28.284L77.6207 26.716ZM75.934 26.025L73.667 25.5733L73.2762 27.5347L75.5432 27.9864L75.934 26.025ZM73.6677 25.5734C72.4979 25.3394 71.7604 24.9581 71.3268 24.5205L69.9062 25.9283C70.7226 26.7522 71.8885 27.2572 73.2755 27.5346L73.6677 25.5734ZM71.33 24.5238C70.9145 24.1006 70.6875 23.558 70.6875 22.8125H68.6875C68.6875 24.0216 69.0799 25.0869 69.903 25.9251L71.33 24.5238ZM70.6875 22.8125C70.6875 22.163 70.8589 21.6544 71.1702 21.238L69.5684 20.0404C68.9707 20.8399 68.6875 21.7802 68.6875 22.8125H70.6875ZM71.1666 21.2428C71.499 20.8038 71.9841 20.4361 72.6732 20.1623L71.9348 18.3036C70.9648 18.6889 70.1601 19.2587 69.572 20.0356L71.1666 21.2428ZM72.671 20.1632C73.3645 19.8896 74.2122 19.7386 75.2358 19.7386V17.7386C74.0207 17.7386 72.914 17.9173 71.937 18.3027L72.671 20.1632ZM75.2358 19.7386C76.7595 19.7386 77.8261 20.0618 78.5462 20.5921L79.7322 18.9818C78.5546 18.1144 77.0189 17.7386 75.2358 17.7386V19.7386ZM78.5485 20.5938C79.2762 21.1266 79.6938 21.8307 79.8183 22.773L81.801 22.5111C81.6073 21.0443 80.9113 19.845 79.7299 18.9801L78.5485 20.5938ZM87.0249 24.4318L86.0249 24.4217V24.4318H87.0249ZM87.0249 32V33C87.5771 33 88.0249 32.5523 88.0249 32H87.0249ZM83.3942 32H82.3942C82.3942 32.5523 82.8419 33 83.3942 33V32ZM83.3942 14.5455V13.5455C82.8419 13.5455 82.3942 13.9932 82.3942 14.5455H83.3942ZM86.9226 14.5455H87.9226C87.9226 13.9932 87.4749 13.5455 86.9226 13.5455V14.5455ZM86.9226 21.2188H85.9226C85.9226 21.771 86.3703 22.2188 86.9226 22.2188V21.2188ZM87.076 21.2188V22.2188C87.4905 22.2188 87.862 21.963 88.01 21.5759L87.076 21.2188ZM88.5078 19.4034L89.0609 20.2366L89.0658 20.2333L88.5078 19.4034ZM93.3658 19.3352L92.8587 20.1972L92.8673 20.2021L93.3658 19.3352ZM94.951 21.0312L94.0593 21.484L94.0636 21.4922L94.951 21.0312ZM95.5135 23.6648L94.5135 23.6592V23.6648H95.5135ZM95.5135 32V33C96.0658 33 96.5135 32.5523 96.5135 32H95.5135ZM91.8828 32H90.8828C90.8828 32.5523 91.3305 33 91.8828 33V32ZM91.8828 24.3125L90.8828 24.3055V24.3125H91.8828ZM91.2692 22.429L90.5301 23.1026L90.5347 23.1076L91.2692 22.429ZM88.2351 22.071L87.7517 21.1956L87.7461 21.1987L88.2351 22.071ZM87.3487 22.9915L86.467 22.5196L86.4646 22.5242L87.3487 22.9915ZM86.0249 24.4318V32H88.0249V24.4318H86.0249ZM87.0249 31H83.3942V33H87.0249V31ZM84.3942 32V14.5455H82.3942V32H84.3942ZM83.3942 15.5455H86.9226V13.5455H83.3942V15.5455ZM85.9226 14.5455V21.2188H87.9226V14.5455H85.9226ZM86.9226 22.2188H87.076V20.2188H86.9226V22.2188ZM88.01 21.5759C88.2348 20.9882 88.5835 20.5534 89.0609 20.2366L87.9548 18.5703C87.114 19.1284 86.5081 19.9039 86.1419 20.8616L88.01 21.5759ZM89.0658 20.2333C89.5227 19.926 90.1422 19.7386 90.9879 19.7386V17.7386C89.845 17.7386 88.8111 17.9944 87.9498 18.5736L89.0658 20.2333ZM90.9879 19.7386C91.7474 19.7386 92.3593 19.9034 92.8587 20.1972L93.8728 18.4733C93.02 17.9716 92.0466 17.7386 90.9879 17.7386V19.7386ZM92.8673 20.2021C93.3714 20.492 93.7674 20.909 94.0593 21.4839L95.8427 20.5786C95.3846 19.6763 94.7238 18.9626 93.8642 18.4683L92.8673 20.2021ZM94.0636 21.4922C94.3537 22.0507 94.5185 22.7608 94.5135 23.6592L96.5135 23.6703C96.5199 22.5233 96.3097 21.4777 95.8384 20.5703L94.0636 21.4922ZM94.5135 23.6648V32H96.5135V23.6648H94.5135ZM95.5135 31H91.8828V33H95.5135V31ZM92.8828 32V24.3125H90.8828V32H92.8828ZM92.8828 24.3195C92.8897 23.3422 92.6401 22.4391 92.0036 21.7503L90.5347 23.1076C90.7278 23.3165 90.8873 23.6691 90.8828 24.3055L92.8828 24.3195ZM92.0083 21.7554C91.3695 21.0545 90.5017 20.7557 89.5476 20.7557V22.7557C90.0707 22.7557 90.3507 22.9057 90.5301 23.1026L92.0083 21.7554ZM89.5476 20.7557C88.9076 20.7557 88.2996 20.893 87.7517 21.1956L88.7185 22.9464C88.9319 22.8285 89.1989 22.7557 89.5476 22.7557V20.7557ZM87.7461 21.1987C87.1938 21.5083 86.7669 21.9593 86.4671 22.5196L88.2304 23.4634C88.3623 23.2168 88.5263 23.0542 88.7241 22.9433L87.7461 21.1987ZM86.4646 22.5242C86.1635 23.0938 86.0318 23.7389 86.0249 24.4217L88.0248 24.4419C88.0293 23.9998 88.1135 23.6846 88.2328 23.4588L86.4646 22.5242ZM100.851 31.4119L100.342 32.2726L100.348 32.2761L100.851 31.4119ZM98.6264 29.0426L97.737 29.4997L97.7381 29.5018L98.6264 29.0426ZM98.6264 21.9602L99.5148 22.4194L99.5158 22.4174L98.6264 21.9602ZM100.851 19.5909L101.356 20.4538L101.358 20.4528L100.851 19.5909ZM107.712 19.5909L107.202 20.4516L107.208 20.4551L107.712 19.5909ZM109.945 21.9602L109.055 22.4174L109.056 22.4194L109.945 21.9602ZM109.945 29.0426L110.833 29.5018L110.834 29.4997L109.945 29.0426ZM107.712 31.4119L108.217 32.2748L108.219 32.2739L107.712 31.4119ZM105.811 28.9318L106.457 29.6956L106.463 29.6903L105.811 28.9318ZM106.723 27.517L105.78 27.1847L105.777 27.1927L106.723 27.517ZM106.723 23.4432L105.777 23.7675L105.78 23.7755L106.723 23.4432ZM102.768 22.0284L102.127 21.261L102.122 21.2654L102.768 22.0284ZM101.839 23.4432L100.896 23.1108L100.894 23.1189L101.839 23.4432ZM101.839 27.517L100.894 27.8414L100.896 27.8494L101.839 27.517ZM102.768 28.9318L102.122 29.6948C102.126 29.698 102.13 29.7012 102.134 29.7044L102.768 28.9318ZM104.286 31.2557C103.106 31.2557 102.141 31.0061 101.354 30.5478L100.348 32.2761C101.492 32.9427 102.818 33.2557 104.286 33.2557V31.2557ZM101.36 30.5513C100.565 30.0808 99.9532 29.4317 99.5148 28.5835L97.7381 29.5018C98.3451 30.6763 99.2164 31.6067 100.342 32.2726L101.36 30.5513ZM99.5158 28.5855C99.0774 27.7324 98.8423 26.715 98.8423 25.5057H96.8423C96.8423 26.9782 97.13 28.3188 97.737 29.4997L99.5158 28.5855ZM98.8423 25.5057C98.8423 24.2833 99.078 23.2645 99.5148 22.4194L97.7381 21.5011C97.1294 22.6787 96.8423 24.0235 96.8423 25.5057H98.8423ZM99.5158 22.4174C99.9542 21.5644 100.565 20.9175 101.356 20.4538L100.345 18.7281C99.2165 19.3893 98.3441 20.322 97.737 21.5031L99.5158 22.4174ZM101.358 20.4528C102.144 19.9903 103.107 19.7386 104.286 19.7386V17.7386C102.816 17.7386 101.489 18.0552 100.344 18.729L101.358 20.4528ZM104.286 19.7386C105.464 19.7386 106.423 19.9903 107.202 20.4515L108.221 18.7303C107.08 18.0551 105.755 17.7386 104.286 17.7386V19.7386ZM107.208 20.4551C108.005 20.9192 108.618 21.5659 109.055 22.4174L110.834 21.5031C110.226 20.3204 109.35 19.3876 108.215 18.7268L107.208 20.4551ZM109.056 22.4194C109.493 23.2645 109.729 24.2833 109.729 25.5057H111.729C111.729 24.0235 111.442 22.6787 110.833 21.5011L109.056 22.4194ZM109.729 25.5057C109.729 26.715 109.494 27.7324 109.055 28.5855L110.834 29.4997C111.441 28.3188 111.729 26.9782 111.729 25.5057H109.729ZM109.056 28.5835C108.619 29.4301 108.005 30.079 107.205 30.55L108.219 32.2739C109.35 31.6085 110.225 30.6778 110.833 29.5018L109.056 28.5835ZM107.206 30.5491C106.426 31.0061 105.466 31.2557 104.286 31.2557V33.2557C105.753 33.2557 107.077 32.9428 108.217 32.2748L107.206 30.5491ZM104.303 30.4432C105.106 30.4432 105.847 30.2103 106.457 29.6956L105.166 28.168C104.968 28.3351 104.704 28.4432 104.303 28.4432V30.4432ZM106.463 29.6903C107.024 29.2079 107.417 28.5748 107.669 27.8414L105.777 27.1927C105.619 27.6525 105.405 27.9626 105.159 28.1733L106.463 29.6903ZM107.666 27.8494C107.921 27.1268 108.038 26.3323 108.038 25.4801H106.038C106.038 26.1506 105.946 26.7141 105.78 27.1847L107.666 27.8494ZM108.038 25.4801C108.038 24.6279 107.921 23.8334 107.666 23.1108L105.78 23.7755C105.946 24.2461 106.038 24.8096 106.038 25.4801H108.038ZM107.669 23.1189C107.417 22.3854 107.024 21.7524 106.463 21.2699L105.159 22.7869C105.405 22.9976 105.619 23.3078 105.777 23.7675L107.669 23.1189ZM106.463 21.2699C105.854 20.7468 105.11 20.5085 104.303 20.5085V22.5085C104.699 22.5085 104.961 22.6168 105.159 22.7869L106.463 21.2699ZM104.303 20.5085C103.491 20.5085 102.744 20.7454 102.127 21.2611L103.41 22.7958C103.622 22.6183 103.898 22.5085 104.303 22.5085V20.5085ZM102.122 21.2654C101.555 21.7458 101.155 22.3772 100.896 23.1108L102.783 23.7755C102.945 23.316 103.164 23.0042 103.415 22.7914L102.122 21.2654ZM100.894 23.1189C100.647 23.8389 100.533 24.6305 100.533 25.4801H102.533C102.533 24.807 102.623 24.2406 102.785 23.7675L100.894 23.1189ZM100.533 25.4801C100.533 26.3297 100.647 27.1213 100.894 27.8414L102.785 27.1927C102.623 26.7196 102.533 26.1533 102.533 25.4801H100.533ZM100.896 27.8494C101.155 28.583 101.555 29.2144 102.122 29.6948L103.415 28.1688C103.164 27.956 102.945 27.6443 102.783 27.1847L100.896 27.8494ZM102.134 29.7044C102.751 30.2117 103.495 30.4432 104.303 30.4432V28.4432C103.894 28.4432 103.616 28.3338 103.403 28.1593L102.134 29.7044ZM113.089 36.9091H112.089C112.089 37.4614 112.537 37.9091 113.089 37.9091V36.9091ZM113.089 18.9091V17.9091C112.537 17.9091 112.089 18.3568 112.089 18.9091H113.089ZM116.669 18.9091H117.669C117.669 18.3568 117.221 17.9091 116.669 17.9091V18.9091ZM116.669 21.108H115.669C115.669 21.6602 116.117 22.108 116.669 22.108V21.108ZM116.831 21.108V22.108C117.224 22.108 117.581 21.8777 117.742 21.5195L116.831 21.108ZM117.521 20.0341L116.752 19.3951L116.751 19.3963L117.521 20.0341ZM118.714 19.1136L119.162 20.0081L119.166 20.006L118.714 19.1136ZM123.197 19.4886L122.671 20.3387L122.675 20.3413L123.197 19.4886ZM125.132 21.7301L124.232 22.165L124.233 22.167L125.132 21.7301ZM125.149 29.1705L124.244 28.7459L124.243 28.7481L125.149 29.1705ZM123.24 31.446L123.778 32.2889L123.78 32.288L123.24 31.446ZM118.749 31.8636L118.318 32.7663L118.322 32.7682L118.749 31.8636ZM117.547 30.9858L116.794 31.6435L116.799 31.6494L117.547 30.9858ZM116.831 29.9034L117.742 29.4907C117.58 29.1331 117.224 28.9034 116.831 28.9034V29.9034ZM116.72 29.9034V28.9034C116.168 28.9034 115.72 29.3511 115.72 29.9034H116.72ZM116.72 36.9091V37.9091C117.272 37.9091 117.72 37.4614 117.72 36.9091H116.72ZM117.905 28.8466L117.284 29.6307L117.291 29.6359L117.905 28.8466ZM120.896 28.8381L121.517 29.6221L121.524 29.6168L120.896 28.8381ZM121.825 27.4744L120.887 27.1283L120.885 27.1334L121.825 27.4744ZM121.834 23.4602L122.773 23.1162L122.773 23.1162L121.834 23.4602ZM120.905 22.1136L121.526 21.3296L121.526 21.3296L120.905 22.1136ZM117.896 22.0966L117.289 21.3019L117.284 21.306L117.896 22.0966ZM116.967 23.4261L116.031 23.074L116.031 23.074L116.967 23.4261ZM114.089 36.9091V18.9091H112.089V36.9091H114.089ZM113.089 19.9091H116.669V17.9091H113.089V19.9091ZM115.669 18.9091V21.108H117.669V18.9091H115.669ZM116.669 22.108H116.831V20.108H116.669V22.108ZM117.742 21.5195C117.858 21.2643 118.035 20.9814 118.291 20.6719L116.751 19.3963C116.405 19.8141 116.122 20.2471 115.92 20.6964L117.742 21.5195ZM118.29 20.6731C118.497 20.424 118.78 20.199 119.162 20.0081L118.267 18.2192C117.672 18.5169 117.159 18.9055 116.752 19.3951L118.29 20.6731ZM119.166 20.006C119.482 19.8459 119.931 19.7386 120.555 19.7386V17.7386C119.714 17.7386 118.935 17.8814 118.263 18.2213L119.166 20.006ZM120.555 19.7386C121.325 19.7386 122.023 19.9373 122.671 20.3386L123.724 18.6386C122.758 18.04 121.695 17.7386 120.555 17.7386V19.7386ZM122.675 20.3413C123.292 20.7191 123.817 21.3071 124.232 22.165L126.033 21.2952C125.481 20.1531 124.717 19.2468 123.72 18.6359L122.675 20.3413ZM124.233 22.167C124.63 22.9856 124.857 24.0717 124.857 25.4716H126.857C126.857 23.8715 126.6 22.4633 126.032 21.2932L124.233 22.167ZM124.857 25.4716C124.857 26.8292 124.637 27.908 124.244 28.7459L126.055 29.595C126.605 28.4216 126.857 27.0344 126.857 25.4716H124.857ZM124.243 28.7481C123.844 29.6029 123.325 30.204 122.7 30.6041L123.78 32.288C124.769 31.6539 125.522 30.738 126.056 29.5928L124.243 28.7481ZM122.702 30.6031C122.069 31.007 121.36 31.2131 120.547 31.2131V33.2131C121.723 33.2131 122.809 32.9078 123.778 32.2889L122.702 30.6031ZM120.547 31.2131C119.949 31.2131 119.503 31.1137 119.175 30.9591L118.322 32.7682C118.983 33.0794 119.736 33.2131 120.547 33.2131V31.2131ZM119.179 30.961C118.793 30.7771 118.506 30.5604 118.295 30.3222L116.799 31.6494C117.212 32.1157 117.727 32.4843 118.318 32.7663L119.179 30.961ZM118.3 30.3281C118.04 30.0302 117.86 29.7504 117.742 29.4907L115.92 30.3161C116.132 30.7837 116.429 31.2255 116.794 31.6435L118.3 30.3281ZM116.831 28.9034H116.72V30.9034H116.831V28.9034ZM115.72 29.9034V36.9091H117.72V29.9034H115.72ZM116.72 35.9091H113.089V37.9091H116.72V35.9091ZM115.643 25.4545C115.643 26.3226 115.764 27.1247 116.03 27.8406L117.904 27.1424C117.739 26.6992 117.643 26.1433 117.643 25.4545H115.643ZM116.03 27.8406C116.298 28.5593 116.707 29.1739 117.284 29.6306L118.526 28.0625C118.284 27.8715 118.068 27.5828 117.904 27.1424L116.03 27.8406ZM117.291 29.6359C117.898 30.1081 118.619 30.3239 119.396 30.3239V28.3239C119.003 28.3239 118.73 28.2214 118.519 28.0572L117.291 29.6359ZM119.396 30.3239C120.181 30.3239 120.908 30.1042 121.517 29.6221L120.276 28.054C120.066 28.2197 119.793 28.3239 119.396 28.3239V30.3239ZM121.524 29.6168C122.098 29.1541 122.504 28.5365 122.765 27.8154L120.885 27.1334C120.726 27.5714 120.513 27.863 120.269 28.0593L121.524 29.6168ZM122.763 27.8206C123.028 27.1031 123.149 26.3088 123.149 25.4545H121.149C121.149 26.123 121.054 26.6753 120.887 27.1283L122.763 27.8206ZM123.149 25.4545C123.149 24.6082 123.032 23.8229 122.773 23.1162L120.895 23.8042C121.056 24.2453 121.149 24.7895 121.149 25.4545H123.149ZM122.773 23.1162C122.51 22.3992 122.103 21.7864 121.526 21.3296L120.284 22.8977C120.525 23.0886 120.737 23.3735 120.895 23.8042L122.773 23.1162ZM121.526 21.3296C120.915 20.8462 120.184 20.6278 119.396 20.6278V22.6278C119.802 22.6278 120.077 22.7334 120.284 22.8977L121.526 21.3296ZM119.396 20.6278C118.62 20.6278 117.898 20.837 117.289 21.3019L118.503 22.8913C118.713 22.7311 118.991 22.6278 119.396 22.6278V20.6278ZM117.284 21.306C116.707 21.7529 116.299 22.362 116.031 23.074L117.903 23.7783C118.067 23.3425 118.279 23.0653 118.509 22.8871L117.284 21.306ZM116.031 23.074C115.763 23.7862 115.643 24.5869 115.643 25.4545H117.643C117.643 24.7654 117.739 24.2138 117.903 23.7783L116.031 23.074ZM128.277 36.9091H127.277C127.277 37.4614 127.725 37.9091 128.277 37.9091V36.9091ZM128.277 18.9091V17.9091C127.725 17.9091 127.277 18.3568 127.277 18.9091H128.277ZM131.857 18.9091H132.857C132.857 18.3568 132.409 17.9091 131.857 17.9091V18.9091ZM131.857 21.108H130.857C130.857 21.6602 131.304 22.108 131.857 22.108V21.108ZM132.018 21.108V22.108C132.411 22.108 132.768 21.8777 132.93 21.5195L132.018 21.108ZM132.709 20.0341L131.94 19.3951L131.939 19.3963L132.709 20.0341ZM133.902 19.1136L134.349 20.0081L134.353 20.006L133.902 19.1136ZM138.385 19.4886L137.858 20.3387L137.863 20.3413L138.385 19.4886ZM140.32 21.7301L139.419 22.165L139.42 22.167L140.32 21.7301ZM140.337 29.1705L139.431 28.7459L139.43 28.7481L140.337 29.1705ZM138.428 31.446L138.966 32.2889L138.967 32.288L138.428 31.446ZM133.936 31.8636L133.506 32.7663L133.51 32.7682L133.936 31.8636ZM132.734 30.9858L131.981 31.6435L131.986 31.6494L132.734 30.9858ZM132.018 29.9034L132.929 29.4907C132.767 29.1331 132.411 28.9034 132.018 28.9034V29.9034ZM131.908 29.9034V28.9034C131.355 28.9034 130.908 29.3511 130.908 29.9034H131.908ZM131.908 36.9091V37.9091C132.46 37.9091 132.908 37.4614 132.908 36.9091H131.908ZM133.092 28.8466L132.472 29.6307L132.478 29.6359L133.092 28.8466ZM136.084 28.8381L136.705 29.6221L136.711 29.6168L136.084 28.8381ZM137.013 27.4744L136.075 27.1283L136.073 27.1334L137.013 27.4744ZM137.021 23.4602L137.96 23.1162L137.96 23.1162L137.021 23.4602ZM136.092 22.1136L136.713 21.3296L136.713 21.3296L136.092 22.1136ZM133.084 22.0966L132.477 21.3019L132.471 21.306L133.084 22.0966ZM132.155 23.4261L131.219 23.074L131.219 23.074L132.155 23.4261ZM129.277 36.9091V18.9091H127.277V36.9091H129.277ZM128.277 19.9091H131.857V17.9091H128.277V19.9091ZM130.857 18.9091V21.108H132.857V18.9091H130.857ZM131.857 22.108H132.018V20.108H131.857V22.108ZM132.93 21.5195C133.045 21.2643 133.223 20.9814 133.479 20.6719L131.939 19.3963C131.593 19.8141 131.31 20.2471 131.107 20.6964L132.93 21.5195ZM133.478 20.6731C133.685 20.424 133.967 20.199 134.349 20.0081L133.455 18.2192C132.859 18.5169 132.346 18.9055 131.94 19.3951L133.478 20.6731ZM134.353 20.006C134.67 19.8459 135.118 19.7386 135.743 19.7386V17.7386C134.902 17.7386 134.123 17.8814 133.451 18.2213L134.353 20.006ZM135.743 19.7386C136.512 19.7386 137.211 19.9373 137.858 20.3386L138.912 18.6386C137.946 18.04 136.882 17.7386 135.743 17.7386V19.7386ZM137.863 20.3413C138.479 20.7191 139.005 21.3071 139.419 22.165L141.22 21.2952C140.668 20.1531 139.904 19.2468 138.907 18.6359L137.863 20.3413ZM139.42 22.167C139.818 22.9856 140.044 24.0717 140.044 25.4716H142.044C142.044 23.8715 141.787 22.4633 141.219 21.2932L139.42 22.167ZM140.044 25.4716C140.044 26.8292 139.824 27.908 139.431 28.7459L141.242 29.595C141.792 28.4216 142.044 27.0344 142.044 25.4716H140.044ZM139.43 28.7481C139.032 29.6029 138.512 30.204 137.888 30.6041L138.967 32.288C139.957 31.6539 140.71 30.738 141.243 29.5928L139.43 28.7481ZM137.89 30.6031C137.257 31.007 136.547 31.2131 135.734 31.2131V33.2131C136.91 33.2131 137.996 32.9078 138.966 32.2889L137.89 30.6031ZM135.734 31.2131C135.136 31.2131 134.691 31.1137 134.362 30.9591L133.51 32.7682C134.17 33.0794 134.924 33.2131 135.734 33.2131V31.2131ZM134.366 30.961C133.981 30.7771 133.694 30.5604 133.482 30.3222L131.986 31.6494C132.4 32.1157 132.914 32.4843 133.506 32.7663L134.366 30.961ZM133.488 30.3281C133.228 30.0302 133.047 29.7504 132.929 29.4907L131.108 30.3161C131.319 30.7837 131.616 31.2255 131.981 31.6435L133.488 30.3281ZM132.018 28.9034H131.908V30.9034H132.018V28.9034ZM130.908 29.9034V36.9091H132.908V29.9034H130.908ZM131.908 35.9091H128.277V37.9091H131.908V35.9091ZM130.831 25.4545C130.831 26.3226 130.951 27.1247 131.218 27.8406L133.092 27.1424C132.927 26.6992 132.831 26.1433 132.831 25.4545H130.831ZM131.218 27.8406C131.485 28.5593 131.895 29.1739 132.472 29.6306L133.713 28.0625C133.472 27.8715 133.256 27.5828 133.092 27.1424L131.218 27.8406ZM132.478 29.6359C133.085 30.1081 133.806 30.3239 134.584 30.3239V28.3239C134.191 28.3239 133.917 28.2214 133.706 28.0572L132.478 29.6359ZM134.584 30.3239C135.369 30.3239 136.096 30.1042 136.705 29.6221L135.463 28.054C135.254 28.2197 134.981 28.3239 134.584 28.3239V30.3239ZM136.711 29.6168C137.286 29.1541 137.691 28.5365 137.953 27.8154L136.073 27.1334C135.914 27.5714 135.7 27.863 135.456 28.0593L136.711 29.6168ZM137.951 27.8206C138.216 27.1031 138.337 26.3088 138.337 25.4545H136.337C136.337 26.123 136.242 26.6753 136.075 27.1283L137.951 27.8206ZM138.337 25.4545C138.337 24.6082 138.219 23.8229 137.96 23.1162L136.082 23.8042C136.244 24.2453 136.337 24.7895 136.337 25.4545H138.337ZM137.96 23.1162C137.698 22.3992 137.29 21.7864 136.713 21.3296L135.472 22.8977C135.713 23.0886 135.925 23.3735 136.082 23.8042L137.96 23.1162ZM136.713 21.3296C136.102 20.8462 135.372 20.6278 134.584 20.6278V22.6278C134.989 22.6278 135.264 22.7334 135.472 22.8977L136.713 21.3296ZM134.584 20.6278C133.807 20.6278 133.085 20.837 132.477 21.3019L133.691 22.8913C133.9 22.7311 134.178 22.6278 134.584 22.6278V20.6278ZM132.471 21.306C131.895 21.7529 131.487 22.362 131.219 23.074L133.091 23.7783C133.255 23.3425 133.466 23.0653 133.696 22.8871L132.471 21.306ZM131.219 23.074C130.951 23.7862 130.831 24.5869 130.831 25.4545H132.831C132.831 24.7654 132.927 24.2138 133.091 23.7783L131.219 23.074ZM143.464 32H142.464C142.464 32.5523 142.912 33 143.464 33V32ZM143.464 18.9091V17.9091C142.912 17.9091 142.464 18.3568 142.464 18.9091H143.464ZM147.095 18.9091H148.095C148.095 18.3568 147.647 17.9091 147.095 17.9091V18.9091ZM147.095 32V33C147.647 33 148.095 32.5523 148.095 32H147.095ZM143.899 16.6847L143.208 17.4078C143.212 17.4113 143.216 17.4148 143.22 17.4182L143.899 16.6847ZM143.899 14.0938L144.584 14.8223L144.585 14.8219L143.899 14.0938ZM146.669 14.0938L145.978 14.8169C145.982 14.8204 145.986 14.8239 145.989 14.8273L146.669 14.0938ZM146.669 16.6847L147.354 17.4132L147.354 17.4129L146.669 16.6847ZM144.464 32V18.9091H142.464V32H144.464ZM143.464 19.9091H147.095V17.9091H143.464V19.9091ZM146.095 18.9091V32H148.095V18.9091H146.095ZM147.095 31H143.464V33H147.095V31ZM145.288 16.2216C144.994 16.2216 144.775 16.1331 144.579 15.9511L143.22 17.4182C143.796 17.9521 144.503 18.2216 145.288 18.2216V16.2216ZM144.59 15.9615C144.398 15.7779 144.328 15.6008 144.328 15.3807H142.328C142.328 16.1719 142.639 16.8642 143.208 17.4078L144.59 15.9615ZM144.328 15.3807C144.328 15.1703 144.394 15.0008 144.584 14.8223L143.214 13.3652C142.643 13.9026 142.328 14.5911 142.328 15.3807H144.328ZM144.585 14.8219C144.782 14.6362 144.998 14.5483 145.288 14.5483V12.5483C144.499 12.5483 143.789 12.824 143.214 13.3656L144.585 14.8219ZM145.288 14.5483C145.578 14.5483 145.789 14.6359 145.978 14.8169L147.36 13.3706C146.788 12.8243 146.078 12.5483 145.288 12.5483V14.5483ZM145.989 14.8273C146.184 15.0074 146.249 15.1754 146.249 15.3807H148.249C148.249 14.5859 147.927 13.896 147.349 13.3602L145.989 14.8273ZM146.249 15.3807C146.249 15.5957 146.18 15.7713 145.984 15.9565L147.354 17.4129C147.93 16.8707 148.249 16.177 148.249 15.3807H146.249ZM145.984 15.9561C145.795 16.1334 145.583 16.2216 145.288 16.2216V18.2216C146.073 18.2216 146.781 17.9518 147.354 17.4132L145.984 15.9561ZM153.634 24.4318L152.634 24.4217V24.4318H153.634ZM153.634 32V33C154.187 33 154.634 32.5523 154.634 32H153.634ZM150.004 32H149.004C149.004 32.5523 149.451 33 150.004 33V32ZM150.004 18.9091V17.9091C149.451 17.9091 149.004 18.3568 149.004 18.9091H150.004ZM153.464 18.9091H154.464C154.464 18.3568 154.016 17.9091 153.464 17.9091V18.9091ZM153.464 21.2188H152.464C152.464 21.771 152.911 22.2188 153.464 22.2188V21.2188ZM153.617 21.2188V22.2188C154.032 22.2188 154.404 21.9624 154.552 21.5745L153.617 21.2188ZM155.075 19.4119L155.62 20.2504L155.624 20.2472L155.075 19.4119ZM161.509 21.0398L160.618 21.4925L160.619 21.4952L161.509 21.0398ZM162.072 32V33C162.624 33 163.072 32.5523 163.072 32H162.072ZM158.441 32H157.441C157.441 32.5523 157.889 33 158.441 33V32ZM158.441 24.3125L157.441 24.3054V24.3125H158.441ZM157.827 22.4375L157.089 23.1116L157.093 23.1162L157.827 22.4375ZM154.819 22.071L154.33 21.1987L154.324 21.202L154.819 22.071ZM153.95 22.9915L153.063 22.5293L153.06 22.5341L153.95 22.9915ZM152.634 24.4318V32H154.634V24.4318H152.634ZM153.634 31H150.004V33H153.634V31ZM151.004 32V18.9091H149.004V32H151.004ZM150.004 19.9091H153.464V17.9091H150.004V19.9091ZM152.464 18.9091V21.2188H154.464V18.9091H152.464ZM153.464 22.2188H153.617V20.2188H153.464V22.2188ZM154.552 21.5745C154.766 21.0109 155.116 20.5778 155.62 20.2504L154.53 18.5735C153.67 19.1324 153.048 19.9039 152.683 20.863L154.552 21.5745ZM155.624 20.2472C156.114 19.9248 156.741 19.7386 157.555 19.7386V17.7386C156.425 17.7386 155.399 18.0013 154.525 18.5767L155.624 20.2472ZM157.555 19.7386C158.314 19.7386 158.926 19.9034 159.426 20.1972L160.44 18.4733C159.587 17.9716 158.613 17.7386 157.555 17.7386V19.7386ZM159.426 20.1972C159.928 20.4925 160.324 20.9142 160.618 21.4925L162.401 20.5871C161.944 19.6881 161.29 18.9734 160.44 18.4733L159.426 20.1972ZM160.619 21.4952C160.907 22.0579 161.072 22.7695 161.072 23.6648H163.072C163.072 22.526 162.862 21.4876 162.399 20.5843L160.619 21.4952ZM161.072 23.6648V32H163.072V23.6648H161.072ZM162.072 31H158.441V33H162.072V31ZM159.441 32V24.3125H157.441V32H159.441ZM159.441 24.3196C159.448 23.3457 159.197 22.4464 158.562 21.7588L157.093 23.1162C157.287 23.3263 157.446 23.677 157.441 24.3054L159.441 24.3196ZM158.566 21.7634C157.927 21.0633 157.067 20.7557 156.114 20.7557V22.7557C156.616 22.7557 156.898 22.9026 157.089 23.1116L158.566 21.7634ZM156.114 20.7557C155.478 20.7557 154.874 20.8939 154.33 21.1987L155.308 22.9433C155.514 22.8277 155.773 22.7557 156.114 22.7557V20.7557ZM154.324 21.202C153.776 21.5141 153.355 21.968 153.063 22.5293L154.836 23.4536C154.964 23.2082 155.123 23.0484 155.314 22.9401L154.324 21.202ZM153.06 22.5341C152.769 23.1013 152.641 23.7427 152.634 24.4217L154.634 24.4419C154.639 23.996 154.721 23.6771 154.839 23.4488L153.06 22.5341ZM167.805 36.696L168.165 35.7628L168.161 35.7615L167.805 36.696ZM165.811 35.392L165.067 36.0597L165.067 36.0597L165.811 35.392ZM164.848 33.5341L164.715 32.543C164.438 32.5802 164.19 32.731 164.03 32.959C163.87 33.187 163.812 33.4716 163.87 33.7442L164.848 33.5341ZM168.206 33.0824L169.137 32.718C168.969 32.2887 168.53 32.0299 168.073 32.0913L168.206 33.0824ZM168.692 33.8153L169.408 33.1172L169.408 33.1172L168.692 33.8153ZM169.57 34.3608L169.929 33.4274L169.921 33.4245L169.57 34.3608ZM172.868 33.9943L172.275 33.189L172.265 33.1965L172.868 33.9943ZM173.643 29.6818H174.643C174.643 29.1295 174.196 28.6818 173.643 28.6818V29.6818ZM173.49 29.6818V28.6818C173.093 28.6818 172.733 28.917 172.574 29.281L173.49 29.6818ZM172.774 30.7131L173.487 31.4139L173.487 31.4139L172.774 30.7131ZM167.072 31.1307L166.574 31.9978L166.582 32.0019L167.072 31.1307ZM165.155 29.0256L164.259 29.4706L164.263 29.4771L165.155 29.0256ZM165.172 21.7131L164.272 21.2762L164.272 21.2762L165.172 21.7131ZM167.098 19.4801L166.576 18.6274L166.573 18.6291L167.098 19.4801ZM171.589 19.1136L171.138 20.006L171.146 20.0101L171.589 19.1136ZM172.783 20.0341L172.008 20.666C172.011 20.6704 172.015 20.6747 172.018 20.679L172.783 20.0341ZM173.49 21.108L172.584 21.5316C172.749 21.8833 173.102 22.108 173.49 22.108V21.108ZM173.626 21.108V22.108C174.179 22.108 174.626 21.6602 174.626 21.108H173.626ZM173.626 18.9091V17.9091C173.074 17.9091 172.626 18.3568 172.626 18.9091H173.626ZM177.232 18.9091H178.232C178.232 18.3568 177.784 17.9091 177.232 17.9091V18.9091ZM176.413 34.9233L175.605 34.3351L175.605 34.3351L176.413 34.9233ZM174.146 36.6108L173.784 35.6786L173.778 35.6812L174.146 36.6108ZM172.391 28.6506L172.974 29.4628L172.976 29.4612L172.391 28.6506ZM173.328 27.3892L172.4 27.0162L172.398 27.0212L173.328 27.3892ZM173.337 23.4176L172.402 23.7728L172.403 23.776L173.337 23.4176ZM169.399 22.1136L170.013 22.903L170.02 22.8977L169.399 22.1136ZM168.47 23.4432L169.408 23.7902L169.408 23.7902L168.47 23.4432ZM168.47 27.3722L167.536 27.7286L167.54 27.7402L168.47 27.3722ZM169.399 28.642L168.801 29.4434C168.805 29.4465 168.809 29.4496 168.814 29.4527L169.399 28.642ZM170.831 36.1818C169.742 36.1818 168.862 36.0313 168.165 35.7628L167.446 37.6292C168.431 38.0084 169.568 38.1818 170.831 38.1818V36.1818ZM168.161 35.7615C167.445 35.4884 166.924 35.1347 166.556 34.7244L165.067 36.0597C165.687 36.7516 166.496 37.2672 167.449 37.6305L168.161 35.7615ZM166.556 34.7244C166.171 34.2957 165.935 33.8322 165.826 33.324L163.87 33.7442C164.057 34.611 164.462 35.3861 165.067 36.0597L166.556 34.7244ZM164.981 34.5252L168.339 34.0735L168.073 32.0913L164.715 32.543L164.981 34.5252ZM167.275 33.4468C167.432 33.8479 167.673 34.2029 167.976 34.5134L169.408 33.1172C169.267 32.9732 169.185 32.8396 169.137 32.718L167.275 33.4468ZM167.976 34.5134C168.32 34.8668 168.747 35.1204 169.218 35.2971L169.921 33.4245C169.665 33.3284 169.506 33.2184 169.408 33.1172L167.976 34.5134ZM169.211 35.2941C169.726 35.4923 170.304 35.5739 170.916 35.5739V33.5739C170.472 33.5739 170.152 33.5134 169.929 33.4274L169.211 35.2941ZM170.916 35.5739C171.872 35.5739 172.749 35.3377 173.471 34.7922L172.265 33.1965C171.964 33.4236 171.54 33.5739 170.916 33.5739V35.5739ZM173.461 34.7996C174.326 34.1625 174.643 33.157 174.643 32.0767H172.643C172.643 32.7919 172.444 33.0648 172.275 33.189L173.461 34.7996ZM174.643 32.0767V29.6818H172.643V32.0767H174.643ZM173.643 28.6818H173.49V30.6818H173.643V28.6818ZM172.574 29.281C172.47 29.5183 172.306 29.7629 172.061 30.0122L173.487 31.4139C173.879 31.0155 174.192 30.5726 174.406 30.0826L172.574 29.281ZM172.061 30.0122C171.854 30.2227 171.566 30.4174 171.168 30.5801L171.926 32.4312C172.528 32.1849 173.058 31.8512 173.487 31.4139L172.061 30.0122ZM171.168 30.5801C170.817 30.7238 170.356 30.8125 169.757 30.8125V32.8125C170.545 32.8125 171.277 32.6967 171.926 32.4312L171.168 30.5801ZM169.757 30.8125C168.935 30.8125 168.211 30.6244 167.563 30.2594L166.582 32.0019C167.547 32.5461 168.613 32.8125 169.757 32.8125V30.8125ZM167.571 30.2636C166.962 29.9139 166.449 29.369 166.047 28.5741L164.263 29.4771C164.815 30.5685 165.581 31.427 166.574 31.9978L167.571 30.2636ZM166.05 28.5805C165.668 27.8111 165.447 26.7771 165.447 25.429H163.447C163.447 26.9785 163.699 28.3423 164.259 29.4706L166.05 28.5805ZM165.447 25.429C165.447 24.0482 165.673 22.9699 166.071 22.15L164.272 21.2762C163.705 22.4449 163.447 23.8439 163.447 25.429H165.447ZM166.071 22.15C166.486 21.2962 167.01 20.7095 167.623 20.3311L166.573 18.6291C165.584 19.2394 164.824 20.1413 164.272 21.2762L166.071 22.15ZM167.62 20.3328C168.268 19.9363 168.97 19.7386 169.749 19.7386V17.7386C168.607 17.7386 167.542 18.0353 166.576 18.6274L167.62 20.3328ZM169.749 19.7386C170.373 19.7386 170.822 19.8459 171.138 20.006L172.041 18.2213C171.369 17.8814 170.59 17.7386 169.749 17.7386V19.7386ZM171.146 20.0101C171.532 20.2009 171.81 20.4237 172.008 20.666L173.558 19.4022C173.153 18.9058 172.635 18.515 172.033 18.2172L171.146 20.0101ZM172.018 20.679C172.281 20.9898 172.464 21.2744 172.584 21.5316L174.396 20.6843C174.187 20.237 173.898 19.8057 173.547 19.3892L172.018 20.679ZM173.49 22.108H173.626V20.108H173.49V22.108ZM174.626 21.108V18.9091H172.626V21.108H174.626ZM173.626 19.9091H177.232V17.9091H173.626V19.9091ZM176.232 18.9091V32.1278H178.232V18.9091H176.232ZM176.232 32.1278C176.232 33.0736 176.002 33.7881 175.605 34.3351L177.222 35.5115C177.915 34.5584 178.232 33.4093 178.232 32.1278H176.232ZM175.605 34.3351C175.185 34.9122 174.593 35.3646 173.784 35.6786L174.508 37.543C175.631 37.107 176.551 36.4344 177.222 35.5115L175.605 34.3351ZM173.778 35.6812C172.957 36.0067 171.981 36.1818 170.831 36.1818V38.1818C172.181 38.1818 173.415 37.9762 174.515 37.5404L173.778 35.6812ZM170.908 30.0852C171.664 30.0852 172.372 29.8953 172.974 29.4628L171.807 27.8384C171.603 27.9854 171.322 28.0852 170.908 28.0852V30.0852ZM172.976 29.4612C173.564 29.0369 173.983 28.4507 174.258 27.7573L172.398 27.0212C172.241 27.4187 172.036 27.6733 171.805 27.8399L172.976 29.4612ZM174.256 27.7622C174.537 27.0635 174.661 26.2713 174.661 25.4119H172.661C172.661 26.0867 172.563 26.6126 172.4 27.0162L174.256 27.7622ZM174.661 25.4119C174.661 24.5544 174.54 23.7626 174.27 23.0593L172.403 23.776C172.565 24.1976 172.661 24.7354 172.661 25.4119H174.661ZM174.271 23.0624C174.001 22.3519 173.588 21.7466 173.006 21.3019L171.792 22.8913C172.028 23.0716 172.24 23.3469 172.402 23.7728L174.271 23.0624ZM173.006 21.3019C172.399 20.8383 171.681 20.6278 170.908 20.6278V22.6278C171.305 22.6278 171.581 22.7299 171.792 22.8913L173.006 21.3019ZM170.908 20.6278C170.12 20.6278 169.389 20.8462 168.778 21.3296L170.02 22.8977C170.227 22.7334 170.502 22.6278 170.908 22.6278V20.6278ZM168.785 21.3243C168.206 21.775 167.796 22.3832 167.532 23.0962L169.408 23.7902C169.565 23.3668 169.774 23.0886 170.013 22.903L168.785 21.3243ZM167.532 23.0962C167.273 23.7976 167.155 24.5753 167.155 25.4119H169.155C169.155 24.7599 169.247 24.2252 169.408 23.7902L167.532 23.0962ZM167.155 25.4119C167.155 26.2567 167.272 27.0366 167.536 27.7286L169.405 27.0158C169.248 26.6054 169.155 26.0785 169.155 25.4119H167.155ZM167.54 27.7402C167.813 28.4291 168.226 29.0141 168.801 29.4434L169.997 27.8407C169.766 27.6677 169.559 27.4061 169.4 27.0041L167.54 27.7402ZM168.814 29.4527C169.423 29.8925 170.14 30.0852 170.908 30.0852V28.0852C170.482 28.0852 170.194 27.9825 169.985 27.8314L168.814 29.4527ZM189.306 14.5455H190.306C190.306 13.9932 189.858 13.5455 189.306 13.5455V14.5455ZM189.306 32V33C189.858 33 190.306 32.5523 190.306 32H189.306ZM185.675 32H184.675C184.675 32.5523 185.123 33 185.675 33V32ZM185.675 14.5455V13.5455C185.123 13.5455 184.675 13.9932 184.675 14.5455H185.675ZM188.306 14.5455V32H190.306V14.5455H188.306ZM189.306 31H185.675V33H189.306V31ZM186.675 32V14.5455H184.675V32H186.675ZM185.675 15.5455H189.306V13.5455H185.675V15.5455ZM192.214 32H191.214C191.214 32.5523 191.662 33 192.214 33V32ZM192.214 18.9091V17.9091C191.662 17.9091 191.214 18.3568 191.214 18.9091H192.214ZM195.845 18.9091H196.845C196.845 18.3568 196.397 17.9091 195.845 17.9091V18.9091ZM195.845 32V33C196.397 33 196.845 32.5523 196.845 32H195.845ZM192.649 16.6847L191.958 17.4078C191.962 17.4113 191.966 17.4148 191.97 17.4182L192.649 16.6847ZM192.649 14.0938L193.334 14.8223L193.335 14.8219L192.649 14.0938ZM195.419 14.0938L194.728 14.8169C194.732 14.8204 194.736 14.8239 194.739 14.8273L195.419 14.0938ZM195.419 16.6847L196.104 17.4132L196.104 17.4129L195.419 16.6847ZM193.214 32V18.9091H191.214V32H193.214ZM192.214 19.9091H195.845V17.9091H192.214V19.9091ZM194.845 18.9091V32H196.845V18.9091H194.845ZM195.845 31H192.214V33H195.845V31ZM194.038 16.2216C193.744 16.2216 193.525 16.1331 193.329 15.9511L191.97 17.4182C192.546 17.9521 193.253 18.2216 194.038 18.2216V16.2216ZM193.34 15.9615C193.148 15.7779 193.078 15.6008 193.078 15.3807H191.078C191.078 16.1719 191.389 16.8642 191.958 17.4078L193.34 15.9615ZM193.078 15.3807C193.078 15.1703 193.144 15.0008 193.334 14.8223L191.964 13.3652C191.393 13.9026 191.078 14.5911 191.078 15.3807H193.078ZM193.335 14.8219C193.532 14.6362 193.748 14.5483 194.038 14.5483V12.5483C193.249 12.5483 192.539 12.824 191.964 13.3656L193.335 14.8219ZM194.038 14.5483C194.328 14.5483 194.539 14.6359 194.728 14.8169L196.11 13.3706C195.538 12.8243 194.828 12.5483 194.038 12.5483V14.5483ZM194.739 14.8273C194.934 15.0074 194.999 15.1754 194.999 15.3807H196.999C196.999 14.5859 196.677 13.896 196.099 13.3602L194.739 14.8273ZM194.999 15.3807C194.999 15.5957 194.93 15.7713 194.734 15.9565L196.104 17.4129C196.68 16.8707 196.999 16.177 196.999 15.3807H194.999ZM194.734 15.9561C194.545 16.1334 194.333 16.2216 194.038 16.2216V18.2216C194.823 18.2216 195.531 17.9518 196.104 17.4132L194.734 15.9561ZM209.646 22.642L209.707 23.6402C209.984 23.6231 210.241 23.4919 210.417 23.2778C210.594 23.0637 210.673 22.7861 210.637 22.5111L209.646 22.642ZM206.322 22.8466L205.341 23.0427C205.439 23.5329 205.884 23.8754 206.383 23.8447L206.322 22.8466ZM205.955 22.0795L205.176 22.7066L205.184 22.7159L205.955 22.0795ZM205.214 21.5256L204.787 22.43C204.794 22.4332 204.801 22.4363 204.808 22.4394L205.214 21.5256ZM202.708 21.6705L203.224 22.5269L203.234 22.5213L202.708 21.6705ZM202.504 23.4006L201.85 24.1574L201.85 24.1574L202.504 23.4006ZM203.79 23.9205L203.58 24.8982L203.593 24.9008L203.79 23.9205ZM206.16 24.3977L206.361 23.4182L206.357 23.4174L206.16 24.3977ZM209.006 25.6591L208.326 26.3924L208.326 26.3924L209.006 25.6591ZM209.185 30.2017L208.397 29.5863L208.394 29.5907L209.185 30.2017ZM207.123 31.7188L207.504 32.6434L207.507 32.6422L207.123 31.7188ZM199.972 31.1733L199.393 31.9883L199.398 31.9919L199.972 31.1733ZM198.174 28.2074L198.122 27.2088C197.842 27.2235 197.581 27.3551 197.402 27.5715C197.224 27.7879 197.145 28.0692 197.184 28.3469L198.174 28.2074ZM201.745 28.0199L202.725 27.8197C202.626 27.3348 202.187 26.9953 201.693 27.0213L201.745 28.0199ZM202.529 29.2301L201.972 30.0604L201.98 30.0657L202.529 29.2301ZM205.657 29.2727L206.191 30.1179L206.195 30.1159L205.657 29.2727ZM206.254 28.3097L207.253 28.3242C207.254 28.3136 207.254 28.303 207.253 28.2924L206.254 28.3097ZM205.836 27.5L205.215 28.2841L205.225 28.292L205.836 27.5ZM204.575 27.0057L204.771 26.0251L204.77 26.025L204.575 27.0057ZM202.308 26.554L202.111 27.5346L202.112 27.5347L202.308 26.554ZM199.452 25.2244L198.739 25.9251L198.742 25.9283L199.452 25.2244ZM199.205 20.6392L198.408 20.0356L198.404 20.0404L199.205 20.6392ZM201.14 19.233L200.773 18.3027L200.771 18.3036L201.14 19.233ZM207.975 19.7869L207.382 20.5921L207.384 20.5938L207.975 19.7869ZM209.584 21.6439L206.26 21.8485L206.383 23.8447L209.707 23.6402L209.584 21.6439ZM207.302 22.6505C207.213 22.2018 207.017 21.7954 206.727 21.4432L205.184 22.7159C205.268 22.8182 205.317 22.9232 205.341 23.0427L207.302 22.6505ZM206.734 21.4525C206.435 21.0812 206.054 20.8047 205.62 20.6118L204.808 22.4394C204.987 22.5192 205.1 22.612 205.176 22.7066L206.734 21.4525ZM205.64 20.6211C205.176 20.4019 204.662 20.3125 204.131 20.3125V22.3125C204.442 22.3125 204.65 22.3652 204.787 22.43L205.64 20.6211ZM204.131 20.3125C203.427 20.3125 202.761 20.4626 202.183 20.8197L203.234 22.5213C203.428 22.401 203.71 22.3125 204.131 22.3125V20.3125ZM202.192 20.8141C201.559 21.1956 201.129 21.807 201.129 22.608H203.129C203.129 22.5928 203.13 22.5891 203.129 22.5933C203.128 22.5979 203.126 22.6027 203.124 22.6054C203.12 22.6117 203.137 22.5797 203.224 22.5268L202.192 20.8141ZM201.129 22.608C201.129 23.2294 201.394 23.7639 201.85 24.1574L203.157 22.6437C203.14 22.6288 203.131 22.6186 203.128 22.614C203.124 22.6097 203.125 22.6094 203.126 22.6128C203.128 22.6163 203.129 22.6197 203.129 22.6214C203.13 22.6229 203.129 22.619 203.129 22.608H201.129ZM201.85 24.1574C202.296 24.5424 202.929 24.7582 203.58 24.8981L204.001 22.9428C203.436 22.8213 203.211 22.6905 203.157 22.6437L201.85 24.1574ZM203.593 24.9008L205.962 25.378L206.357 23.4174L203.988 22.9401L203.593 24.9008ZM205.959 25.3773C207.139 25.6197 207.888 25.986 208.326 26.3924L209.686 24.9258C208.875 24.173 207.726 23.6985 206.361 23.4182L205.959 25.3773ZM208.326 26.3924C208.724 26.7614 208.944 27.2454 208.944 27.9432H210.944C210.944 26.7546 210.538 25.7159 209.686 24.9258L208.326 26.3924ZM208.944 27.9432C208.944 28.5887 208.759 29.1225 208.397 29.5863L209.974 30.8171C210.623 29.9854 210.944 29.0136 210.944 27.9432H208.944ZM208.394 29.5907C208.016 30.08 207.479 30.4878 206.739 30.7953L207.507 32.6422C208.517 32.2224 209.355 31.6188 209.977 30.8128L208.394 29.5907ZM206.742 30.7941C206.016 31.0931 205.147 31.2557 204.114 31.2557V33.2557C205.355 33.2557 206.491 33.0603 207.504 32.6434L206.742 30.7941ZM204.114 31.2557C202.511 31.2557 201.354 30.9211 200.547 30.3547L199.398 31.9919C200.648 32.8687 202.252 33.2557 204.114 33.2557V31.2557ZM200.552 30.3583C199.754 29.7913 199.302 29.0477 199.164 28.0679L197.184 28.3469C197.398 29.8671 198.145 31.1007 199.393 31.9883L200.552 30.3583ZM198.226 29.206L201.797 29.0185L201.693 27.0213L198.122 27.2088L198.226 29.206ZM200.765 28.2201C200.921 28.9833 201.32 29.6232 201.972 30.0604L203.086 28.3998C202.908 28.2802 202.785 28.1133 202.725 27.8197L200.765 28.2201ZM201.98 30.0657C202.601 30.4739 203.339 30.6392 204.123 30.6392V28.6392C203.612 28.6392 203.287 28.5318 203.079 28.3946L201.98 30.0657ZM204.123 30.6392C204.877 30.6392 205.594 30.4957 206.191 30.1179L205.122 28.4275C204.947 28.5384 204.641 28.6392 204.123 28.6392V30.6392ZM206.195 30.1159C206.809 29.7239 207.242 29.119 207.253 28.3242L205.254 28.2952C205.254 28.3028 205.253 28.3078 205.253 28.3106C205.252 28.3133 205.252 28.3146 205.252 28.3146C205.252 28.3147 205.252 28.3146 205.252 28.3146C205.252 28.3146 205.251 28.3157 205.25 28.3178C205.246 28.3247 205.217 28.367 205.119 28.4296L206.195 30.1159ZM207.253 28.2924C207.242 27.6434 206.948 27.0942 206.446 26.708L205.225 28.292C205.244 28.3065 205.253 28.3163 205.257 28.32C205.259 28.3235 205.258 28.3229 205.256 28.3185C205.254 28.314 205.253 28.31 205.252 28.3086C205.252 28.3075 205.253 28.3129 205.254 28.3269L207.253 28.2924ZM206.457 26.716C206.003 26.3572 205.403 26.1516 204.771 26.0251L204.378 27.9863C204.882 28.087 205.123 28.211 205.215 28.284L206.457 26.716ZM204.77 26.025L202.503 25.5733L202.112 27.5347L204.379 27.9864L204.77 26.025ZM202.504 25.5734C201.334 25.3394 200.596 24.9581 200.163 24.5205L198.742 25.9283C199.559 26.7522 200.724 27.2572 202.111 27.5346L202.504 25.5734ZM200.166 24.5238C199.75 24.1006 199.523 23.558 199.523 22.8125H197.523C197.523 24.0216 197.916 25.0869 198.739 25.9251L200.166 24.5238ZM199.523 22.8125C199.523 22.163 199.695 21.6544 200.006 21.238L198.404 20.0404C197.807 20.8399 197.523 21.7802 197.523 22.8125H199.523ZM200.003 21.2428C200.335 20.8038 200.82 20.4361 201.509 20.1623L200.771 18.3036C199.801 18.6889 198.996 19.2587 198.408 20.0356L200.003 21.2428ZM201.507 20.1632C202.2 19.8896 203.048 19.7386 204.072 19.7386V17.7386C202.857 17.7386 201.75 17.9173 200.773 18.3027L201.507 20.1632ZM204.072 19.7386C205.595 19.7386 206.662 20.0618 207.382 20.5921L208.568 18.9818C207.391 18.1144 205.855 17.7386 204.072 17.7386V19.7386ZM207.384 20.5938C208.112 21.1266 208.53 21.8307 208.654 22.773L210.637 22.5111C210.443 21.0443 209.747 19.845 208.566 18.9801L207.384 20.5938ZM219.193 18.9091H220.193C220.193 18.3568 219.745 17.9091 219.193 17.9091V18.9091ZM219.193 21.6364V22.6364C219.745 22.6364 220.193 22.1886 220.193 21.6364H219.193ZM211.31 21.6364H210.31C210.31 22.1886 210.757 22.6364 211.31 22.6364V21.6364ZM211.31 18.9091V17.9091C210.757 17.9091 210.31 18.3568 210.31 18.9091H211.31ZM213.099 15.7727V14.7727C212.547 14.7727 212.099 15.2204 212.099 15.7727H213.099ZM216.73 15.7727H217.73C217.73 15.2204 217.282 14.7727 216.73 14.7727V15.7727ZM216.884 28.7614L216.006 29.2403L216.012 29.2516L216.884 28.7614ZM217.31 29.1449L216.933 30.0714L216.943 30.0753L217.31 29.1449ZM218.469 29.2131L218.633 30.1995C218.644 30.1977 218.654 30.1958 218.665 30.1936L218.469 29.2131ZM218.861 29.1364L219.839 28.9296C219.727 28.398 219.211 28.0534 218.677 28.1535L218.861 29.1364ZM219.432 31.8381L219.73 32.7925C220.222 32.6387 220.517 32.1358 220.41 31.6313L219.432 31.8381ZM218.665 32.0341L218.446 31.0583C218.441 31.0595 218.435 31.0607 218.43 31.062L218.665 32.0341ZM217.463 32.179L217.427 31.1796L217.424 31.1797L217.463 32.179ZM215.162 31.8295L214.784 32.7552L214.786 32.7564L215.162 31.8295ZM213.636 30.5852L214.476 30.0423L214.476 30.0423L213.636 30.5852ZM213.099 28.4545L214.099 28.4612V28.4545H213.099ZM218.193 18.9091V21.6364H220.193V18.9091H218.193ZM219.193 20.6364H211.31V22.6364H219.193V20.6364ZM212.31 21.6364V18.9091H210.31V21.6364H212.31ZM211.31 19.9091H219.193V17.9091H211.31V19.9091ZM213.099 16.7727H216.73V14.7727H213.099V16.7727ZM215.73 15.7727V27.9773H217.73V15.7727H215.73ZM215.73 27.9773C215.73 28.3936 215.79 28.8452 216.006 29.2402L217.761 28.2825C217.77 28.2975 217.76 28.2867 217.75 28.2327C217.739 28.179 217.73 28.0962 217.73 27.9773H215.73ZM216.012 29.2516C216.218 29.6174 216.528 29.9067 216.933 30.0714L217.686 28.2184C217.7 28.2239 217.718 28.2346 217.736 28.2503C217.753 28.2655 217.758 28.2759 217.755 28.2711L216.012 29.2516ZM216.943 30.0753C217.269 30.2038 217.614 30.2557 217.957 30.2557V28.2557C217.813 28.2557 217.725 28.2337 217.676 28.2145L216.943 30.0753ZM217.957 30.2557C218.184 30.2557 218.409 30.2368 218.633 30.1995L218.304 28.2267C218.187 28.2462 218.072 28.2557 217.957 28.2557V30.2557ZM218.665 30.1936C218.834 30.1598 218.96 30.1352 219.045 30.1192L218.677 28.1535C218.58 28.1717 218.444 28.1982 218.273 28.2325L218.665 30.1936ZM217.882 29.3432L218.453 32.0449L220.41 31.6313L219.839 28.9296L217.882 29.3432ZM219.134 30.8836C218.991 30.9283 218.766 30.9866 218.446 31.0583L218.883 33.0099C219.223 32.9338 219.509 32.8615 219.73 32.7925L219.134 30.8836ZM218.43 31.062C218.185 31.1211 217.856 31.1641 217.427 31.1796L217.499 33.1783C218.014 33.1597 218.485 33.1062 218.899 33.0062L218.43 31.062ZM217.424 31.1797C216.659 31.2096 216.038 31.1057 215.537 30.9027L214.786 32.7564C215.604 33.0875 216.517 33.2166 217.502 33.1782L217.424 31.1797ZM215.54 30.9039C215.065 30.7098 214.723 30.4235 214.476 30.0423L212.797 31.1281C213.277 31.872 213.952 32.4152 214.784 32.7552L215.54 30.9039ZM214.476 30.0423C214.244 29.6838 214.095 29.1786 214.099 28.4612L212.099 28.4479C212.093 29.4464 212.301 30.3617 212.797 31.1281L214.476 30.0423ZM214.099 28.4545V15.7727H212.099V28.4545H214.099Z" fill="#9D9BEF" fill-opacity="0.1"/>
<defs>
<clipPath id="clip0_14_14">
<rect width="25" height="39" fill="white" transform="translate(0.5 3)"/>
</clipPath>
</defs>
</svg>
